<svg width="111" height="105" viewBox="0 0 111 105" fill="none" xmlns="http://www.w3.org/2000/svg">
<rect x="0.5" y="0.5" width="110" height="104" rx="3.5" fill="#121214"/>
<path d="M56.8524 69.1204C56.4361 68.7532 55.9988 68.3847 55.5825 67.978C55.2496 68.2837 54.9378 68.5693 54.6049 68.8549C50.4834 72.3797 46.2378 73.8478 43.7191 72.4205C41.283 71.0547 40.5128 67.0176 41.4919 61.9411C41.5958 61.3904 41.7208 60.84 41.8668 60.2897C41.4295 60.1673 41.0132 60.0449 40.5969 59.9025C35.4137 58.1515 32 55.2949 32 52.4403C32 49.6887 35.1866 47.0173 40.1589 45.3051C40.721 45.1218 41.3041 44.9379 41.9075 44.7747C41.7617 44.2443 41.6573 43.7353 41.5536 43.2458C40.5128 38.0863 41.2417 33.969 43.698 32.5831C46.2581 31.115 50.5044 32.6848 54.771 36.3754C55.0205 36.5995 55.2706 36.8436 55.5412 37.0884C55.9371 36.7219 56.3114 36.3527 56.7073 36.029C60.7468 32.5831 64.7625 31.1351 67.2175 32.5216C69.7776 33.9482 70.5275 38.3539 69.3823 43.7955C69.32 44.1427 69.2366 44.4684 69.1538 44.8155C69.6739 44.9586 70.1939 45.1212 70.6732 45.2837C75.752 46.9966 79.041 49.6673 78.9996 52.4811C78.9996 55.3571 75.4822 58.1896 70.0908 59.9426C69.7993 60.0242 69.5084 60.1259 69.2169 60.2102C69.3416 60.6181 69.425 61.0255 69.5084 61.4335C70.5932 66.7173 69.7586 71.0366 67.2399 72.4639C66.57 72.8307 65.8133 73.0154 65.0473 72.999C62.7353 72.9997 59.805 71.6025 56.8524 69.1204ZM60.9325 61.6381C59.7315 63.3522 58.4179 64.9868 57.0002 66.5313C57.3955 66.9193 57.7907 67.2671 58.1867 67.5914C61.6207 70.4862 64.7849 71.567 66.2622 70.731C66.9497 70.3437 67.5321 69.3652 67.8033 67.877C68.104 65.8541 68.0192 63.7935 67.5531 61.8013C67.4907 61.4341 67.4073 61.0656 67.3029 60.6797C65.2018 61.1307 63.0739 61.4499 60.9319 61.6354L60.9325 61.6381ZM43.4899 62.2909C42.637 66.633 43.2607 69.8749 44.7388 70.7109C45.4262 71.0982 46.5693 71.0982 48.0277 70.5885C49.9691 69.844 51.7544 68.7519 53.2936 67.3674C53.6062 67.1226 53.897 66.837 54.2096 66.5521C52.7595 65.0058 51.4103 63.3703 50.1701 61.6555C48.037 61.4918 45.9169 61.1926 43.8228 60.7599C43.698 61.289 43.5936 61.798 43.4892 62.2876L43.4899 62.2909ZM55.6042 65.1448C56.5202 64.1456 57.4348 63.0447 58.3521 61.8214C57.4361 61.8622 56.4788 61.8822 55.5215 61.8822C54.5845 61.8822 53.6688 61.862 52.7743 61.8214C53.6598 62.9748 54.6041 64.0832 55.6035 65.1422L55.6042 65.1448ZM51.2325 45.2429C50.442 46.3639 49.6732 47.5464 48.943 48.7877C48.2141 50.011 47.5483 51.2551 46.9443 52.4978C47.5687 53.7211 48.2324 54.9651 48.9633 56.2292C49.6921 57.4525 50.4623 58.6551 51.2529 59.7968C52.6265 59.8784 54.0631 59.9192 55.5201 59.9192C56.9975 59.9192 58.4355 59.8784 59.8281 59.7767C60.5779 58.6551 61.3475 57.4525 62.0763 56.2085C62.8051 54.9645 63.4913 53.701 64.0954 52.4777C63.492 51.2738 62.8072 50.0311 62.0763 48.7877C61.3454 47.5444 60.5773 46.3612 59.8078 45.2429C58.4131 45.1406 56.9765 45.079 55.5201 45.079C54.0638 45.079 52.6272 45.1412 51.2325 45.2429ZM44.3638 58.8825C45.794 59.1822 47.2392 59.407 48.6935 59.556C48.1938 58.7808 47.6948 58.0063 47.2154 57.191C46.7578 56.3964 46.2995 55.6005 45.8832 54.8059C45.3046 56.1375 44.7974 57.4983 44.3638 58.8825ZM63.8221 57.1696C63.3435 57.9849 62.8648 58.7601 62.3861 59.5146C63.862 59.3442 65.328 59.0987 66.7782 58.7788C66.3246 57.3995 65.7963 56.0452 65.1957 54.7217C64.7609 55.5368 64.304 56.353 63.8248 57.1703L63.8221 57.1696ZM40.8044 47.1825C36.5588 48.65 33.9987 50.7943 33.9987 52.4623C33.9987 53.2375 34.5811 54.216 35.7466 55.1939C37.3923 56.459 39.253 57.4254 41.2417 58.0478C41.6166 58.1702 42.0119 58.2725 42.4071 58.3949C43.049 56.384 43.821 54.4158 44.7184 52.5025C43.8193 50.6205 43.054 48.6791 42.4282 46.6923C41.8663 46.8336 41.3251 46.997 40.8044 47.1825ZM66.3436 52.4623C67.2665 54.3511 68.0593 56.2992 68.7165 58.2933C68.9877 58.2123 69.2589 58.1301 69.5078 58.0485C74.1493 56.5396 77.0219 54.2361 77.0429 52.4416C77.0429 50.7695 74.3784 48.6092 70.0278 47.1411C69.5911 46.9986 69.1125 46.8555 68.6338 46.713C67.9996 48.6765 67.2345 50.5964 66.3436 52.4603V52.4623ZM63.8045 47.7711C64.2832 48.5864 64.7408 49.3823 65.1605 50.1789C65.7374 48.8834 66.2377 47.556 66.6588 46.2034C65.2431 45.887 63.8121 45.6415 62.3712 45.4676C62.8675 46.2221 63.3462 46.9765 63.8045 47.7711ZM44.3842 46.1793C44.8004 47.4835 45.3001 48.8091 45.8832 50.1749C46.2995 49.3803 46.7578 48.5844 47.2154 47.7898C47.6731 46.9953 48.1518 46.2201 48.6514 45.4656C47.1531 45.6516 45.7381 45.8964 44.3842 46.1793ZM58.0185 37.5165C57.6646 37.8221 57.3107 38.1485 56.9568 38.4749C58.3955 39.9987 59.724 41.6201 60.9325 43.3273C63.0474 43.5146 65.1471 43.8418 67.2175 44.3065C67.3009 44.0009 67.3633 43.6945 67.4256 43.3889C68.4033 38.7003 67.8006 35.1113 66.2181 34.2151C65.8667 34.0358 65.4746 33.9483 65.0791 33.9609C63.3787 33.9603 60.7698 35.1762 58.0185 37.5165ZM44.6967 34.274C43.2187 35.1093 42.6363 38.4535 43.5102 42.8572C43.614 43.3253 43.7191 43.7935 43.8431 44.2838C45.9164 43.8364 48.0159 43.5166 50.1294 43.326C51.3423 41.6165 52.6777 39.9949 54.1255 38.4736C53.8964 38.2489 53.6469 38.0455 53.4177 37.8409C50.5179 35.3234 47.7361 33.9944 45.9171 33.9944C45.4925 33.9808 45.0718 34.0772 44.6967 34.274ZM58.3094 43.1628C57.4493 42.0189 56.5251 40.9232 55.5412 39.8808C54.6049 40.8794 53.6679 41.981 52.7519 43.1628C53.6679 43.122 54.5825 43.102 55.5201 43.102C56.4578 43.102 57.3934 43.1234 58.3094 43.1635V43.1628ZM51.3553 52.5426C51.3495 51.7212 51.5911 50.9167 52.0495 50.231C52.5078 49.5453 53.1623 49.0093 53.9299 48.691C54.6974 48.3727 55.5435 48.2865 56.3608 48.4432C57.1782 48.6 57.9299 48.9926 58.5207 49.5714C59.1115 50.1502 59.5147 50.889 59.6793 51.6942C59.8439 52.4994 59.7623 53.3346 59.4451 54.094C59.1278 54.8534 58.589 55.5028 57.8972 55.9597C57.2053 56.4167 56.3914 56.6606 55.5588 56.6606C55.0083 56.6639 54.4626 56.5598 53.953 56.3544C53.4434 56.1489 52.98 55.8462 52.5894 55.4635C52.1988 55.0808 51.8887 54.6258 51.6769 54.1245C51.4651 53.6233 51.3558 53.0857 51.3553 52.5426Z" fill="#81D8F7"/>
<rect x="0.5" y="0.5" width="110" height="104" rx="3.5" stroke="#323238"/>
</svg>
